<svg aria-hidden="true" xmlns="http://www.w3.org/2000/svg" xmlns:xlink="http://www.w3.org/1999/xlink"><symbol viewBox="0 0 72 16" fill="none" id="arrow" xmlns="http://www.w3.org/2000/svg">
<path d="M71.3536 8.35356C71.5488 8.1583 71.5488 7.84172 71.3536 7.64645L68.1716 4.46447C67.9763 4.26921 67.6597 4.26921 67.4645 4.46447C67.2692 4.65973 67.2692 4.97632 67.4645 5.17158L70.2929 8.00001L67.4645 10.8284C67.2692 11.0237 67.2692 11.3403 67.4645 11.5355C67.6597 11.7308 67.9763 11.7308 68.1716 11.5355L71.3536 8.35356ZM-4.37114e-08 8.5L4.4375 8.5L4.4375 7.5L4.37114e-08 7.5L-4.37114e-08 8.5ZM13.3125 8.5L22.1875 8.5L22.1875 7.5L13.3125 7.5L13.3125 8.5ZM31.0625 8.5L39.9375 8.5L39.9375 7.5L31.0625 7.5L31.0625 8.5ZM48.8125 8.5L57.6875 8.50001L57.6875 7.50001L48.8125 7.5L48.8125 8.5ZM66.5625 8.50001L71 8.50001L71 7.50001L66.5625 7.50001L66.5625 8.50001ZM71.7071 8.70711C72.0976 8.31659 72.0976 7.68342 71.7071 7.2929L65.3431 0.928938C64.9526 0.538413 64.3195 0.538413 63.9289 0.928938C63.5384 1.31946 63.5384 1.95263 63.9289 2.34315L69.5858 8.00001L63.9289 13.6569C63.5384 14.0474 63.5384 14.6805 63.9289 15.0711C64.3195 15.4616 64.9526 15.4616 65.3431 15.0711L71.7071 8.70711ZM-8.74228e-08 9L4.4375 9L4.4375 7L8.74228e-08 7L-8.74228e-08 9ZM13.3125 9L22.1875 9L22.1875 7L13.3125 7L13.3125 9ZM31.0625 9L39.9375 9L39.9375 7L31.0625 7L31.0625 9ZM48.8125 9L57.6875 9.00001L57.6875 7.00001L48.8125 7L48.8125 9ZM66.5625 9.00001L71 9.00001L71 7.00001L66.5625 7.00001L66.5625 9.00001Z" fill="currentColor"/>
<defs>
<linearGradient id="cpaint0_linear_187_554" x1="3.72008" y1="8.08677" x2="3.74417" y2="9.85313" gradientUnits="userSpaceOnUse">
<stop stop-color="#87CE66"/>
<stop offset="1" stop-color="#63AB41"/>
</linearGradient>
</defs>
</symbol><symbol viewBox="0 0 25 8" fill="none" id="arrow-item" xmlns="http://www.w3.org/2000/svg">
<path d="M24.3536 4.35355C24.5488 4.15829 24.5488 3.84171 24.3536 3.64645L21.1716 0.464466C20.9763 0.269204 20.6597 0.269204 20.4645 0.464466C20.2692 0.659728 20.2692 0.976311 20.4645 1.17157L23.2929 4L20.4645 6.82843C20.2692 7.02369 20.2692 7.34027 20.4645 7.53553C20.6597 7.7308 20.9763 7.7308 21.1716 7.53553L24.3536 4.35355ZM0 4.5H24V3.5H0V4.5Z" fill="currentColor"/>
<defs>
<linearGradient id="apaint0_linear_187_489" x1="1.25749" y1="4.08677" x2="1.32867" y2="5.85058" gradientUnits="userSpaceOnUse">
<stop stop-color="#87CE66"/>
<stop offset="1" stop-color="#63AB41"/>
</linearGradient>
</defs>
</symbol><symbol viewBox="0 0 36 36" fill="none" id="arrow-slider" xmlns="http://www.w3.org/2000/svg">
<g clip-path="url(#bclip0_187_486)">
<path d="M28.2604 17.9997C28.2604 17.3545 28.014 16.7094 27.5224 16.2175L12.043 0.738265C11.0584 -0.246414 9.46187 -0.246414 8.47759 0.738265C7.49331 1.72255 7.49331 3.31871 8.47759 4.30347L22.1746 17.9997L8.47807 31.6959C7.49379 32.6806 7.49379 34.2766 8.47807 35.2608C9.46235 36.246 11.0588 36.246 12.0435 35.2608L27.5229 19.7819C28.0146 19.2897 28.2604 18.6446 28.2604 17.9997Z" fill="currentColor"/>
</g>
<defs>
<linearGradient id="bpaint0_linear_187_486" x1="9.51996" y1="1.88599" x2="37.3055" y2="17.2257" gradientUnits="userSpaceOnUse">
<stop stop-color="#87CE66"/>
<stop offset="1" stop-color="#63AB41"/>
</linearGradient>
<clipPath id="bclip0_187_486">
<rect width="36" height="36" fill="currentColor" transform="matrix(4.37114e-08 1 1 -4.37114e-08 0 0)"/>
</clipPath>
</defs>
</symbol><symbol viewBox="0 0 32 32" fill="none" id="climat" xmlns="http://www.w3.org/2000/svg">
<path d="M16.1201 24.556C11.3908 24.5609 7.54145 20.7202 7.53919 15.9944C7.53693 11.2687 11.3826 7.42011 16.1119 7.41527C20.8412 7.41044 24.6906 11.2512 24.6929 15.9769C24.6952 20.7026 20.8494 24.5512 16.1201 24.556ZM16.1129 9.3198C12.4345 9.32356 9.4434 12.3169 9.44516 15.9925C9.44692 19.668 12.4409 22.6553 16.1192 22.6515C19.7976 22.6478 22.7887 19.6544 22.7869 15.9788C22.7852 12.3033 19.7912 9.31604 16.1129 9.3198Z" fill="currentColor"/>
<path d="M16.1201 5.49691C15.5941 5.49737 15.1675 5.07105 15.1673 4.54476L15.1659 1.68582C15.1657 1.15953 15.5919 0.732462 16.1179 0.732003C16.6439 0.731544 17.0705 1.15787 17.0707 1.68415L17.0721 4.5431C17.0723 5.06938 16.6462 5.49645 16.1201 5.49691Z" fill="currentColor"/>
<path d="M16.1119 31.2397C15.5859 31.2402 15.1594 30.814 15.1593 30.2877L15.1586 27.4288C15.1585 26.9025 15.5848 26.4753 16.1108 26.4747C16.6369 26.4742 17.0633 26.9004 17.0635 27.4267L17.0641 30.2856C17.0642 30.8119 16.6379 31.2391 16.1119 31.2397Z" fill="currentColor"/>
<path d="M30.4152 16.9405L27.5551 16.9426C27.0286 16.943 26.6015 16.5174 26.6012 15.9922C26.6009 15.467 27.0275 15.0409 27.554 15.0405L30.414 15.0385C30.9406 15.0381 31.3676 15.4636 31.368 15.9888C31.3683 16.514 30.9417 16.9402 30.4152 16.9405Z" fill="currentColor"/>
<path d="M4.67342 16.9312L1.81336 16.9332C1.28681 16.9336 0.859755 16.5081 0.859446 15.9829C0.859137 15.4577 1.28569 15.0316 1.81224 15.0312L4.6723 15.0292C5.19885 15.0288 5.6259 15.4543 5.62621 15.9795C5.62652 16.5047 5.19997 16.9308 4.67342 16.9312Z" fill="currentColor"/>
<path d="M24.2094 8.85124C23.368 8.8521 22.933 7.82851 23.5348 7.2263L25.5554 5.20418C25.9275 4.83194 26.5309 4.83126 26.9031 5.2028C27.2755 5.57428 27.2758 6.17724 26.9038 6.54948L24.8832 8.5716C24.6971 8.75778 24.4533 8.851 24.2094 8.85124V8.85124Z" fill="currentColor"/>
<path d="M5.99978 27.047C5.15841 27.0478 4.72336 26.0242 5.32518 25.422L7.3458 23.3999C7.71788 23.0276 8.3213 23.027 8.6935 23.3985C9.06587 23.77 9.06616 24.373 8.69414 24.7452L6.67347 26.7674C6.48749 26.9534 6.24368 27.0467 5.99978 27.047Z" fill="currentColor"/>
<path d="M26.2246 27.0514C25.9807 27.0516 25.7368 26.9589 25.5507 26.7732L23.5281 24.7552C23.1558 24.3837 23.1555 23.7807 23.5275 23.4085C23.8995 23.0362 24.5029 23.0356 24.8752 23.4071L26.8977 25.4251C27.5001 26.026 27.066 27.0505 26.2246 27.0514V27.0514Z" fill="currentColor"/>
<path d="M8.02803 8.84236C7.78413 8.84261 7.54024 8.74989 7.35408 8.56415L5.33148 6.54617C4.9591 6.17463 4.95881 5.57173 5.33083 5.19949C5.7028 4.82719 6.30621 4.82658 6.67853 5.19811L8.70107 7.2161C9.30347 7.81701 8.8694 8.8415 8.02803 8.84236Z" fill="currentColor"/>
</symbol><symbol viewBox="0 0 35 35" fill="none" id="cultur" xmlns="http://www.w3.org/2000/svg">
<path d="M32.8864 25.1682H29.9556V4.20145C29.9556 3.57552 29.4304 3.06813 28.7829 3.06813H22.9209V1.93481C22.9209 1.30888 22.396 0.801498 21.7485 0.801498H20.576C19.9285 0.801498 19.4036 1.30888 19.4036 1.93481V3.06813H15.3001V1.93481C15.3001 1.30888 14.7752 0.801498 14.1277 0.801498H12.9553C12.3078 0.801498 11.7829 1.30888 11.7829 1.93481V3.06813H6.50692C5.8594 3.06813 5.33452 3.57552 5.33452 4.20145V10.687L2.06875 7.78116C1.58492 7.39024 0.87541 7.41048 0.416269 7.82811C-0.0399193 8.26442 -0.062192 8.96973 0.365284 9.4325L5.33452 14.8067V25.1682H2.40337C1.75612 25.1682 1.23097 25.6756 1.23097 26.3015V27.4348C1.23097 28.0607 1.75612 28.5681 2.40337 28.5681H5.67049L3.89779 33.2806C3.76684 33.628 3.8197 34.0153 4.03894 34.3182C4.25845 34.621 4.61669 34.8015 4.99935 34.8015H7.26903C7.76171 34.8005 8.20126 34.5029 8.37059 34.0557L10.4347 28.5681H15.8864V32.5349C15.8864 33.1608 16.4113 33.6682 17.0588 33.6682H18.2312C18.8788 33.6682 19.4036 33.1608 19.4036 32.5349V28.5681H24.8554L26.9195 34.0557C27.0888 34.5029 27.5284 34.8005 28.021 34.8015H30.2907C30.6731 34.8015 31.0316 34.621 31.2509 34.3182C31.4704 34.0153 31.523 33.628 31.3923 33.2806L29.6196 28.5681H32.8864C33.5339 28.5681 34.0588 28.0607 34.0588 27.4348V26.3015C34.0588 25.6756 33.5339 25.1682 32.8864 25.1682V25.1682ZM14.8042 25.1682C14.3094 25.0118 11.1965 23.9215 11.1965 21.2014C11.1933 20.7976 11.1574 20.3942 11.0889 19.9958C11.3476 20.0414 11.6101 20.0655 11.873 20.0681C12.1728 20.0684 12.472 20.0388 12.7653 19.9797C13.2089 19.9185 13.631 19.7558 13.9965 19.505C14.1626 19.3727 14.2401 19.1631 14.1991 18.9589C14.1577 18.7548 14.0042 18.589 13.799 18.5268C13.638 18.4835 13.4834 18.4212 13.3382 18.3416C12.7884 18.0168 12.3421 17.5517 12.0485 16.9974V16.9917C12.7288 17.2565 13.3742 17.5989 13.9707 18.0116C14.2941 18.2417 14.5997 18.4944 14.8844 18.7678C16.7094 20.5317 19.3843 21.4702 23.2761 21.7218C23.3491 21.7522 23.4278 21.768 23.5072 21.7682C23.5469 21.7646 23.5864 21.7568 23.6245 21.7449C24.4139 21.7879 25.1994 21.8017 25.9556 21.8017C26.6047 21.8017 27.2332 21.7913 27.827 21.7822C28.1558 21.7773 28.4716 21.7726 28.7818 21.7698V25.1682H14.8042ZM8.70173 15.841C8.92177 15.6283 9.2199 15.5087 9.53092 15.5087C9.84193 15.5087 10.1403 15.6283 10.3601 15.841C10.5477 16.078 10.669 16.3582 10.7119 16.6539C10.7336 16.7385 10.7554 16.8241 10.7787 16.9061C10.834 17.1154 10.9116 17.3188 11.0103 17.5125C11.2945 18.0531 11.6892 18.5325 12.1704 18.9218C11.7316 18.9584 11.2899 18.9133 10.8689 18.7885C10.0443 18.5187 9.30067 18.057 8.70414 17.444C8.48383 17.2316 8.35985 16.9434 8.35932 16.6428C8.35905 16.3421 8.48222 16.0537 8.70173 15.841ZM28.7829 20.6388C28.4676 20.6417 28.1448 20.6461 27.8093 20.6513C26.6637 20.6694 25.3853 20.6847 24.0933 20.6308V16.0563C25.3191 15.884 26.3989 15.1857 27.0314 14.1562C27.7683 14.0366 28.3686 13.9549 28.7829 13.9045V20.6388ZM24.0933 14.9115V12.9362L25.0939 11.9689C25.3161 11.7463 25.3129 11.393 25.0869 11.1744C24.8607 10.9559 24.495 10.9528 24.265 11.1676L23.5072 11.9002L22.7491 11.1676C22.5191 10.9528 22.1534 10.9559 21.9274 11.1744C21.7012 11.393 21.698 11.7463 21.9202 11.9689L22.9209 12.9362V14.9115C21.4466 14.6205 20.4397 13.2978 20.5908 11.8506C20.7422 10.4034 22.0023 9.30202 23.5072 9.30202C25.0118 9.30202 26.272 10.4034 26.4233 11.8506C26.5747 13.2978 25.5676 14.6205 24.0933 14.9115ZM21.2579 15.4493C21.7592 15.7675 22.327 15.9748 22.9209 16.0563V20.5566C19.57 20.2852 17.2604 19.4619 15.7147 17.967C15.6055 17.8622 15.4882 17.7623 15.3723 17.6614C17.2606 16.7533 19.2308 16.0124 21.2579 15.4487V15.4493ZM20.576 1.93481H21.7485V3.06813H20.576V1.93481ZM12.9553 1.93481H14.1277V3.06813H12.9553V1.93481ZM6.50692 4.20145H28.7829V12.7621C28.4799 12.7979 28.0543 12.8527 27.5273 12.9321C27.9113 11.137 26.9723 9.32121 25.2568 8.54042C23.541 7.75963 21.4951 8.21695 20.3082 9.64676C19.1213 11.0766 19.1028 13.1061 20.2629 14.5562C18.2221 15.1585 16.2436 15.9434 14.3534 16.9011C13.5003 16.3535 12.5715 15.925 11.5948 15.6277C11.4982 15.4096 11.3608 15.2104 11.189 15.0407C10.739 14.6062 10.125 14.3683 9.48905 14.3824L6.50692 11.7303V4.20145ZM0.803225 9.05222L1.27981 8.61928L8.20287 14.7795C8.0848 14.856 7.97424 14.9432 7.8728 15.0397C7.84704 15.0646 7.8296 15.0962 7.80545 15.1196C7.74293 15.1681 7.69167 15.229 7.65491 15.298C7.60956 15.3546 7.56635 15.4158 7.52744 15.4781L6.33572 14.1883L1.24036 8.67479L0.803225 9.05222ZM6.50692 16.0749L7.2057 16.8313C7.24622 17.3654 7.4829 17.8676 7.8728 18.2479C8.43553 18.8062 9.09351 19.2663 9.81778 19.608C9.94712 20.1301 10.0164 20.6647 10.0241 21.2014C10.0413 22.8009 10.8799 24.2875 12.2613 25.1682H6.50692V16.0749ZM7.26903 33.6682H4.99935L6.91722 28.5681H9.18716L7.26903 33.6682ZM18.2312 32.5349H17.0588V28.5681H18.2312V32.5349ZM30.2902 33.6682H28.021L26.1029 28.5681H28.3726L30.2902 33.6682ZM28.7829 27.4348H2.40337V26.3015H32.8864V27.4348H28.7829Z" fill="currentColor"/>
</symbol><symbol viewBox="0 0 37 37" fill="none" id="facebook" xmlns="http://www.w3.org/2000/svg">
<g clip-path="url(#fclip0_187_549)">
<path d="M32.375 0H4.625C2.07431 0 0 2.07431 0 4.625V32.375C0 34.9257 2.07431 37 4.625 37H18.5V24.2812H13.875V18.5H18.5V13.875C18.5 10.0432 21.6057 6.9375 25.4375 6.9375H30.0625V12.7188H27.75C26.4735 12.7188 25.4375 12.5985 25.4375 13.875V18.5H31.2188L28.9062 24.2812H25.4375V37H32.375C34.9257 37 37 34.9257 37 32.375V4.625C37 2.07431 34.9257 0 32.375 0Z" fill="currentColor"/>
</g>
<defs>
<linearGradient id="fpaint0_linear_187_549" x1="1.93863" y1="3.21043" x2="34.6056" y2="36.9399" gradientUnits="userSpaceOnUse">
<stop stop-color="#87CE66"/>
<stop offset="1" stop-color="#63AB41"/>
</linearGradient>
<clipPath id="fclip0_187_549">
<rect width="37" height="37" fill="currentColor"/>
</clipPath>
</defs>
</symbol><symbol viewBox="0 0 18 35" fill="none" id="flora" xmlns="http://www.w3.org/2000/svg">
<path d="M17.2222 17.6783H15.5969C16.5476 15.558 17.1777 13.3182 17.4719 11.0053L17.7481 8.8345C17.7834 8.55725 17.6413 8.28765 17.3927 8.15995C17.1439 8.03218 16.8421 8.07395 16.6374 8.26407L16.4152 8.4704C15.4908 9.32909 14.6658 10.2698 13.9463 11.2788C14.5294 8.47949 15.2791 5.64993 16.0941 3.87364L16.0975 3.86627C16.2234 3.59175 16.1481 3.26689 15.9142 3.07571C15.6806 2.88452 15.3473 2.87509 15.103 3.0528C13.7838 4.01309 12.5969 5.15421 11.5792 6.43014C11.7645 4.86103 12.1951 3.31563 12.8534 1.88558C12.9713 1.62938 12.9146 1.32671 12.7119 1.13061C12.5091 0.934578 12.2049 0.887828 11.9526 1.0142L10.7247 1.62958C8.81345 2.58736 7.49171 4.33098 7.06624 6.363C6.1515 5.31033 5.02937 4.4521 3.75903 3.84502L1.97131 2.99057C1.71127 2.86626 1.40022 2.92403 1.2022 3.13374C1.00411 3.34346 0.964065 3.65702 1.10312 3.90977L1.22252 4.12685C2.44711 6.35278 3.37248 8.71318 3.98726 11.1665C3.53623 10.8301 3.0522 10.5358 2.53908 10.2906L1.03983 9.57406C0.779589 9.44962 0.468676 9.50753 0.27072 9.7173C0.0726974 9.92701 0.0326546 10.2406 0.171775 10.4934L0.271849 10.6753C1.48031 12.8719 2.34066 15.225 2.83485 17.6783H0.753492C0.386798 17.6783 0.0894318 17.9756 0.0894318 18.3423V29.3325C0.0894318 32.4266 2.60668 34.9438 5.70074 34.9438H12.2749C15.369 34.9438 17.8862 32.4266 17.8862 29.3325V18.3423C17.8862 17.9756 17.5889 17.6783 17.2222 17.6783ZM16.1846 10.6009L16.1544 10.8377C15.8515 13.219 15.1713 15.5181 14.1325 17.6783H12.4133C13.0918 15.037 14.3778 12.6263 16.1846 10.6009ZM13.9763 5.74709C12.8911 9.17689 12.1598 13.4599 11.9262 14.9303C11.9256 14.9341 11.9256 14.9379 11.925 14.9417C11.5633 15.8239 11.2691 16.738 11.0459 17.6783H8.93199C8.9622 13.1742 10.8082 8.87255 13.9763 5.74709ZM8.24674 7.79458C8.24661 5.80014 9.28839 3.99437 10.9896 2.99635C10.4352 4.66447 10.1465 6.42735 10.1465 8.17894V8.36401C10.1465 8.40565 10.1508 8.44629 10.1582 8.4858C9.95636 8.82507 9.76458 9.17025 9.58555 9.522C9.45042 9.78749 9.32232 10.0566 9.2006 10.3284C8.97322 9.51211 8.64458 8.72446 8.21912 7.98324C8.23685 7.92341 8.24674 7.86012 8.24674 7.79458ZM3.18614 5.04318L3.18634 5.04332C6.23816 6.50186 8.21726 9.61756 8.24681 12.9962C7.83171 14.5206 7.61323 16.0987 7.6034 17.6783H7.46574C7.38951 16.1945 6.93615 14.7566 6.14068 13.4947C6.00733 13.2831 5.8643 13.0789 5.71422 12.8808C5.22414 10.1584 4.3764 7.52975 3.18614 5.04318ZM2.24198 11.6279C4.49447 12.8248 5.97865 15.1378 6.13576 17.6783H4.18887C3.78911 15.5833 3.1368 13.5562 2.24198 11.6279ZM16.5581 29.3325C16.5581 31.6942 14.6367 33.6157 12.2749 33.6157H5.70074C3.33901 33.6157 1.41755 31.6943 1.41755 29.3325V21.9946H10.5484C10.9151 21.9946 11.2124 21.6973 11.2124 21.3306C11.2124 20.9638 10.9151 20.6665 10.5484 20.6665H1.41755V19.0064H11.5732C11.5758 19.0064 11.5784 19.0064 11.581 19.0064H14.5437C14.5444 19.0064 14.5452 19.0065 14.5459 19.0065C14.5466 19.0065 14.5472 19.0064 14.5478 19.0064H16.5581V29.3325V29.3325Z" fill="currentColor"/>
</symbol><symbol viewBox="0 0 43 43" fill="none" id="logo" xmlns="http://www.w3.org/2000/svg">
<path fill-rule="evenodd" clip-rule="evenodd" d="M25.8093 43C37.2411 43 43 37.6813 43 28.2321C43 16.3898 39.4918 8.83769 29.6685 1.56911C24.7567 -1.20563 16.3368 -2.42862 1.95254 16.8331C-6.46744 32.4678 14.3775 43 25.8093 43ZM22.8709 40.85C32.0721 40.85 36.7073 36.595 36.7073 29.0357C36.7073 19.5619 33.8837 13.5202 25.9771 7.70532C22.0237 5.48552 15.2467 4.50713 3.66912 19.9165C-3.10794 32.4243 13.6697 40.85 22.8709 40.85Z" fill="currentColor"/>
</symbol><symbol viewBox="0 0 37 37" fill="none" id="odnoklassniki" xmlns="http://www.w3.org/2000/svg">
<g clip-path="url(#iclip0_187_544)">
<path d="M18.5202 14.7961C20.5855 14.7894 22.2304 13.1311 22.2229 11.061C22.2146 8.99101 20.567 7.34215 18.5009 7.34058C16.4175 7.33861 14.7536 9.01699 14.7698 11.1059C14.7851 13.1681 16.4485 14.8047 18.5202 14.7961Z" fill="currentColor"/>
<path d="M35.0319 0H1.96809C0.881309 0 0 0.880915 0 1.96809V35.0319C0 36.1191 0.881309 37 1.96809 37H35.0319C36.1191 37 37 36.1191 37 35.0319V1.96809C37 0.880915 36.1191 0 35.0319 0ZM18.5315 3.45045C22.7428 3.46107 26.124 6.9068 26.1031 11.1661C26.0807 15.3267 22.6444 18.6992 18.4398 18.685C14.2769 18.6708 10.8634 15.22 10.8871 11.0504C10.9119 6.83516 14.3277 3.43785 18.5315 3.45045ZM27.0624 21.6773C26.1311 22.6342 25.01 23.3254 23.7646 23.8091C22.5873 24.2641 21.2974 24.4948 20.0205 24.6475C20.2134 24.8577 20.3043 24.9597 20.424 25.0813C22.1575 26.823 23.8981 28.5577 25.6256 30.3046C26.2137 30.8993 26.3381 31.6374 26.0134 32.3297C25.6587 33.0874 24.8656 33.5846 24.087 33.5311C23.5942 33.4964 23.21 33.2512 22.8691 32.9084C21.5608 31.5917 20.2276 30.2999 18.9468 28.96C18.574 28.5695 18.3945 28.6423 18.0647 28.982C16.7488 30.3369 15.4125 31.6708 14.0675 32.9969C13.4633 33.5929 12.7449 33.6995 12.0431 33.3598C11.2984 32.9989 10.8253 32.2388 10.8619 31.474C10.8871 30.9576 11.1413 30.5632 11.496 30.2089C13.2106 28.4963 14.9212 26.7793 16.6327 25.0636C16.7464 24.9502 16.8519 24.8286 17.0169 24.6522C14.6831 24.4086 12.5788 23.8347 10.778 22.4255C10.5548 22.2504 10.3238 22.0811 10.1191 21.8851C9.33109 21.1278 9.25197 20.2614 9.87585 19.3675C10.4088 18.6031 11.3055 18.3977 12.2364 18.8365C12.417 18.9212 12.5887 19.0278 12.7532 19.1416C16.11 21.4482 20.722 21.5124 24.0917 19.2463C24.4251 18.9916 24.7821 18.7806 25.1962 18.6759C26.0012 18.4693 26.7498 18.7641 27.182 19.4679C27.6768 20.2697 27.6701 21.0538 27.0624 21.6773Z" fill="currentColor"/>
</g>
<defs>
<linearGradient id="ipaint0_linear_187_544" x1="15.1602" y1="7.98748" x2="21.7427" y2="14.782" gradientUnits="userSpaceOnUse">
<stop stop-color="#87CE66"/>
<stop offset="1" stop-color="#63AB41"/>
</linearGradient>
<linearGradient id="ipaint1_linear_187_544" x1="1.93863" y1="3.21043" x2="34.6056" y2="36.9399" gradientUnits="userSpaceOnUse">
<stop stop-color="#87CE66"/>
<stop offset="1" stop-color="#63AB41"/>
</linearGradient>
<clipPath id="iclip0_187_544">
<rect width="37" height="37" rx="6" fill="currentColor"/>
</clipPath>
</defs>
</symbol><symbol viewBox="0 0 35 35" fill="none" id="trolleybus" xmlns="http://www.w3.org/2000/svg">
<g clip-path="url(#jclip0_2_67)">
<path d="M29.989 27.7611L28.9453 9.3445C28.8374 7.4759 27.2879 6.01111 25.4165 6.01111H9.50877C7.63592 6.01111 6.08009 7.47596 5.96552 9.3445L4.84173 27.7611C4.78148 28.7457 5.12091 29.6821 5.7951 30.399C6.47068 31.1158 7.38357 31.5111 8.36957 31.5111H26.4434C27.4294 31.5111 28.344 31.1158 29.0242 30.399C29.7014 29.6821 30.0449 28.7457 29.989 27.7611ZM27.9935 29.4271C27.5874 29.8577 27.0372 30.0944 26.4464 30.0944H8.37265C7.7819 30.0944 7.23277 29.8577 6.8271 29.4285C6.42289 28.9979 6.22012 28.4354 6.2554 27.8446L7.3792 9.42804C7.44824 8.30604 8.3823 7.42768 9.50569 7.42768H25.412C26.5354 7.42768 27.4657 8.30604 27.5284 9.42657L28.5721 27.8432C28.6063 28.434 28.3996 28.9965 27.9935 29.4271Z" fill="currentColor"/>
<path d="M26.1865 10.8518C26.1267 9.72698 25.1964 8.84438 24.0688 8.84438H10.8428C9.71512 8.84438 8.78099 9.72698 8.71625 10.8518L8.2243 19.4693C8.22028 21.3181 13.9883 21.5943 17.428 21.5943C20.8677 21.5943 26.637 21.3181 26.6396 19.4311L26.1865 10.8518ZM17.4311 20.1777C12.9219 20.1777 10.2824 19.6238 9.65273 19.2738L10.1299 10.9311C10.1519 10.5557 10.4642 10.261 10.8397 10.261L24.0657 10.261C24.4411 10.261 24.7521 10.5557 24.7711 10.9297L25.2134 19.2738C24.5851 19.6237 21.9432 20.1777 17.4311 20.1777Z" fill="currentColor"/>
<path d="M10.3415 23.011C8.7789 23.011 7.50539 24.2818 7.50199 25.8444C7.49859 27.407 8.76658 28.6777 10.3292 28.6777C11.8918 28.6777 13.1653 27.407 13.1687 25.8444C13.1721 24.2818 11.9041 23.011 10.3415 23.011ZM10.3323 27.261C9.55172 27.261 8.917 26.625 8.9187 25.8444C8.92039 25.0638 9.55788 24.4277 10.3384 24.4277C11.119 24.4277 11.7537 25.0638 11.752 25.8444C11.7504 26.625 11.1129 27.261 10.3323 27.261Z" fill="currentColor"/>
<path d="M24.5082 23.011C22.9456 23.011 21.6721 24.2818 21.6687 25.8444C21.6653 27.407 22.9333 28.6777 24.4959 28.6777C26.0585 28.6777 27.332 27.407 27.3354 25.8444C27.3388 24.2818 26.0708 23.011 24.5082 23.011ZM24.499 27.261C23.7184 27.261 23.0837 26.6249 23.0854 25.8444C23.0871 25.0637 23.7246 24.4277 24.5052 24.4277C25.2857 24.4277 25.9204 25.0637 25.9187 25.8444C25.917 26.625 25.2795 27.261 24.499 27.261Z" fill="currentColor"/>
<path d="M19.5468 24.4277H15.2968C14.9058 24.4277 14.5877 24.7451 14.5869 25.1361C14.586 25.5271 14.9027 25.8444 15.2937 25.8444H19.5437C19.9347 25.8444 20.2527 25.5271 20.2536 25.1361C20.2544 24.745 19.9378 24.4277 19.5468 24.4277Z" fill="currentColor"/>
<path d="M20.249 27.261H14.5823C14.1913 27.261 13.8733 27.5784 13.8724 27.9694C13.8716 28.3604 14.1882 28.6777 14.5792 28.6777H20.2459C20.6369 28.6777 20.9549 28.3604 20.9558 27.9694C20.9566 27.5784 20.64 27.261 20.249 27.261Z" fill="currentColor"/>
<path d="M11.0344 30.0943C10.6434 30.0943 10.3253 30.4117 10.3245 30.8027L10.3214 32.2193C10.3205 32.6103 10.0025 32.9277 9.6115 32.9277C9.2205 32.9277 8.9039 32.6103 8.90475 32.2193L8.90783 30.8027C8.90868 30.4117 8.59202 30.0943 8.20102 30.0943C7.81002 30.0943 7.49197 30.4117 7.49112 30.8027L7.48804 32.2193C7.48549 33.3909 8.43681 34.3443 9.60842 34.3443C10.78 34.3443 11.7355 33.3909 11.738 32.2193L11.7411 30.8027C11.742 30.4117 11.4254 30.0943 11.0344 30.0943Z" fill="currentColor"/>
<path d="M26.6177 30.0944C26.2267 30.0944 25.9087 30.4117 25.9078 30.8027L25.9047 32.2194C25.9039 32.6104 25.5859 32.9277 25.1949 32.9277C24.8039 32.9277 24.4872 32.6104 24.488 32.2194L24.4911 30.8027C24.492 30.4117 24.1753 30.0944 23.7843 30.0944C23.3933 30.0944 23.0753 30.4117 23.0744 30.8027L23.0713 32.2194C23.0688 33.391 24.0201 34.3443 25.1917 34.3443C26.3633 34.3443 27.3188 33.391 27.3213 32.2194L27.3244 30.8027C27.3253 30.4117 27.0087 30.0944 26.6177 30.0944Z" fill="currentColor"/>
<path d="M25.8288 2.04441C25.6169 1.76105 24.216 0.344414 17.4741 0.344414C10.7322 0.344414 9.32518 1.76105 9.11207 2.04441C8.87624 2.35751 8.92198 2.82216 9.23451 3.0573C9.36744 3.15645 9.52179 3.20605 9.67193 3.20605C9.87593 3.20605 10.0745 3.11395 10.2109 2.93405C10.2223 2.92276 11.453 1.76105 17.471 1.76105C23.4168 1.76105 24.6851 2.89441 24.6936 2.89441C24.9266 3.20751 25.3714 3.2698 25.6849 3.03605C25.9985 2.80091 26.0632 2.35751 25.8288 2.04441Z" fill="currentColor"/>
<path d="M19.8767 1.11036C19.52 0.955963 19.1003 1.12311 18.9465 1.48296L17.4643 4.9212L15.9984 1.48436C15.8448 1.12311 15.4244 0.955963 15.0698 1.11175C14.7096 1.26615 14.5416 1.68264 14.6952 2.04111L16.8094 6.99945C16.9194 7.26009 17.1754 7.4287 17.4587 7.4287C17.7421 7.4287 17.9989 7.26009 18.1113 6.99805L20.2471 2.03971C20.4024 1.68125 20.2361 1.26475 19.8767 1.11036Z" fill="currentColor"/>
<path d="M28.7861 10.2611C28.3951 10.2611 28.077 10.5784 28.0762 10.9694C28.0753 11.3604 28.392 11.6778 28.783 11.6778C29.5636 11.6778 30.1982 12.3139 30.1965 13.0944L30.1919 15.2194C30.1911 15.6104 29.873 15.9278 29.482 15.9278H28.7737C28.3827 15.9278 28.0646 16.2451 28.0638 16.6361C28.0629 17.0271 28.3797 17.3444 28.7707 17.3444H29.479C30.6506 17.3444 31.6061 16.391 31.6086 15.2194L31.6133 13.0944C31.6166 11.5318 30.3486 10.2611 28.7861 10.2611Z" fill="currentColor"/>
<path d="M6.10681 15.9277H5.39853C5.00753 15.9277 4.69086 15.6104 4.69171 15.2194L4.69633 13.0944C4.69803 12.3138 5.33552 11.6777 6.11605 11.6777C6.50705 11.6777 6.8251 11.3604 6.82595 10.9694C6.8268 10.5784 6.51014 10.261 6.11914 10.261C4.55653 10.261 3.28302 11.5318 3.27962 13.0944L3.275 15.2194C3.27245 16.391 4.22377 17.3444 5.39538 17.3444H6.10373C6.49473 17.3444 6.81278 17.027 6.81363 16.636C6.81448 16.245 6.49781 15.9277 6.10681 15.9277Z" fill="currentColor"/>
</g>
<defs>
<clipPath id="jclip0_2_67">
<rect width="34" height="34" fill="currentColor" transform="matrix(1 0 -0.00217442 0.999998 0.474136 0.344391)"/>
</clipPath>
</defs>
</symbol><symbol viewBox="0 0 40 41" fill="none" id="twitter" xmlns="http://www.w3.org/2000/svg">
<g clip-path="url(#kclip0_187_540)">
<path d="M40 7.78744C38.5125 8.45625 36.9275 8.89956 35.275 9.11481C36.975 8.07444 38.2725 6.43956 38.8825 4.469C37.2975 5.43762 35.5475 6.12181 33.6825 6.50363C32.1775 4.86106 30.0325 3.84375 27.6925 3.84375C23.1525 3.84375 19.4975 7.62088 19.4975 12.2513C19.4975 12.9176 19.5525 13.5582 19.6875 14.1681C12.87 13.8272 6.8375 10.4781 2.785 5.37613C2.0775 6.63431 1.6625 8.07444 1.6625 9.62475C1.6625 12.5358 3.125 15.1162 5.305 16.6101C3.9875 16.5845 2.695 16.1924 1.6 15.5749C1.6 15.6005 1.6 15.6338 1.6 15.6671C1.6 19.7517 4.4425 23.1445 8.17 23.9261C7.5025 24.1131 6.775 24.2028 6.02 24.2028C5.495 24.2028 4.965 24.1721 4.4675 24.0593C5.53 27.388 8.545 29.8352 12.13 29.9146C9.34 32.1517 5.7975 33.4996 1.9625 33.4996C1.29 33.4996 0.645 33.4688 0 33.3843C3.6325 35.7853 7.9375 37.1562 12.58 37.1562C27.67 37.1562 35.92 24.3438 35.92 13.2379C35.92 12.8663 35.9075 12.5076 35.89 12.1514C37.5175 10.9675 38.885 9.48894 40 7.78744Z" fill="currentColor"/>
</g>
<defs>
<linearGradient id="kpaint0_linear_187_540" x1="2.09582" y1="6.73423" x2="30.8553" y2="42.3903" gradientUnits="userSpaceOnUse">
<stop stop-color="#87CE66"/>
<stop offset="1" stop-color="#63AB41"/>
</linearGradient>
<clipPath id="kclip0_187_540">
<rect width="40" height="41" fill="currentColor"/>
</clipPath>
</defs>
</symbol><symbol viewBox="0 0 49 49" fill="none" id="vk" xmlns="http://www.w3.org/2000/svg">
<g clip-path="url(#lclip0_187_538)">
<path d="M40.6598 26.5988C39.8676 25.5983 40.0942 25.1533 40.6598 24.259C40.67 24.2488 47.2094 15.2124 47.8832 12.1478L47.8873 12.1458C48.2221 11.029 47.8873 10.2083 46.2682 10.2083H40.9109C39.5471 10.2083 38.9182 10.9126 38.5814 11.7007C38.5814 11.7007 35.8537 18.23 31.995 22.4623C30.7495 23.6853 30.1738 24.0773 29.4939 24.0773C29.1591 24.0773 28.6385 23.6853 28.6385 22.5685V12.1458C28.6385 10.8065 28.2567 10.2083 27.1276 10.2083H18.7037C17.8482 10.2083 17.3399 10.833 17.3399 11.4149C17.3399 12.6848 19.2692 12.9768 19.4693 16.5497V24.3019C19.4693 26.0005 19.161 26.3129 18.4771 26.3129C16.6559 26.3129 12.2357 19.7571 9.61625 12.254C9.08746 10.7983 8.57092 10.2103 7.19687 10.2103H1.8375C0.308292 10.2103 0 10.9147 0 11.7028C0 13.0952 1.82117 20.0185 8.46883 29.1651C12.8992 35.4085 19.1386 38.7916 24.8144 38.7916C28.226 38.7916 28.6425 38.0403 28.6425 36.7479C28.6425 30.7821 28.3342 30.2186 30.0431 30.2186C30.8353 30.2186 32.1991 30.6106 35.3841 33.6221C39.0244 37.193 39.6226 38.7916 41.6602 38.7916H47.0175C48.5447 38.7916 49.3185 38.0403 48.8734 36.558C47.8546 33.4404 40.9701 27.0275 40.6598 26.5988Z" fill="currentColor"/>
</g>
<defs>
<linearGradient id="lpaint0_linear_187_538" x1="2.56729" y1="12.6884" x2="24.1942" y2="50.9675" gradientUnits="userSpaceOnUse">
<stop stop-color="#87CE66"/>
<stop offset="1" stop-color="#63AB41"/>
</linearGradient>
<clipPath id="lclip0_187_538">
<rect width="49" height="49" fill="currentColor"/>
</clipPath>
</defs>
</symbol></svg>